<?xml version="1.0" encoding="utf-8"?>
<!-- Generator: Adobe Illustrator 16.0.0, SVG Export Plug-In . SVG Version: 6.00 Build 0)  -->
<!DOCTYPE svg PUBLIC "-//W3C//DTD SVG 1.1//EN" "http://www.w3.org/Graphics/SVG/1.1/DTD/svg11.dtd">
<svg version="1.1" id="Layer_1" xmlns="http://www.w3.org/2000/svg" xmlns:xlink="http://www.w3.org/1999/xlink" x="0px" y="0px"
	 width="567.998px" height="222.222px" viewBox="0 0 567.998 222.222" enable-background="new 0 0 567.998 222.222"
	 xml:space="preserve">
<g>
	<path fill="#FFFFFF" d="M86.268,113.485c-3.743,2.551-6.698,5.571-8.868,9.059c-2.171,3.486-3.255,7.63-3.255,12.429
		c0,6.225,1.627,10.799,4.883,13.725c3.255,2.925,7.389,4.387,12.403,4.387c5.313,0,9.991-1.292,14.032-3.881
		c4.041-2.587,7.445-5.643,10.215-9.168l0.673-38.811c-6.361,1.875-11.937,3.713-16.726,5.513
		C94.835,108.537,90.382,110.787,86.268,113.485z"/>
	<path fill="#FFFFFF" d="M101.194,4.544C45.306,4.544,0,49.85,0,105.738c0,55.889,45.306,101.194,101.194,101.194
		c55.888,0,101.194-45.306,101.194-101.194C202.388,49.85,157.082,4.544,101.194,4.544z M155.526,160.493
		c-3.519,1.273-6.605,2.301-9.261,3.087c-2.657,0.785-5.668,1.178-9.036,1.178c-5.837,0-10.495-1.367-13.975-4.095
		c-3.48-2.732-5.707-6.719-6.679-11.956h-0.674c-4.865,5.388-10.084,9.505-15.659,12.347c-5.576,2.844-12.291,4.267-20.148,4.267
		c-8.306,0-15.137-2.545-20.485-7.635c-5.352-5.087-8.026-11.747-8.026-19.98c0-4.265,0.598-8.081,1.796-11.448
		c1.196-3.368,2.993-6.398,5.389-9.092c1.869-2.245,4.339-4.248,7.408-6.006c3.067-1.758,5.949-3.16,8.643-4.21
		c3.368-1.271,10.195-3.629,20.485-7.071c10.289-3.441,17.231-6.135,20.823-8.082V80.682c0-0.972-0.207-2.843-0.617-5.612
		c-0.413-2.768-1.291-5.388-2.638-7.857c-1.499-2.768-3.611-5.181-6.343-7.24c-2.732-2.057-6.605-3.087-11.618-3.087
		c-3.443,0-6.643,0.581-9.597,1.74c-2.958,1.161-5.035,2.376-6.23,3.648c0,1.498,0.354,3.704,1.066,6.623
		c0.71,2.919,1.066,5.612,1.066,8.083c0,2.62-1.178,5.014-3.536,7.183c-2.357,2.172-5.632,3.256-9.822,3.256
		c-3.743,0-6.493-1.328-8.25-3.985c-1.76-2.655-2.639-5.63-2.639-8.924c0-3.441,1.216-6.734,3.648-9.877
		c2.431-3.144,5.593-5.95,9.485-8.419c3.368-2.094,7.445-3.873,12.235-5.332c4.789-1.459,9.466-2.188,14.032-2.188
		c6.286,0,11.767,0.431,16.444,1.291c4.676,0.861,8.924,2.713,12.741,5.557c3.816,2.769,6.716,6.529,8.699,11.28
		c1.982,4.754,2.975,10.872,2.975,18.354c0,10.702-0.112,20.187-0.336,28.455c-0.225,8.27-0.337,17.306-0.337,27.108
		c0,2.919,0.505,5.239,1.515,6.96c1.01,1.722,2.563,3.182,4.658,4.377c1.123,0.674,2.9,1.05,5.333,1.122
		c2.43,0.078,4.919,0.114,7.464,0.114V160.493z"/>
</g>
<g>
	<path fill="#FFFFFF" d="M295.975,149.891l-5.761-17.282h-34.702l-5.898,17.282h-19.888l35.524-97.659h14.951l35.662,97.659H295.975
		z M273.207,81.036l-12.345,35.525h24.278L273.207,81.036z"/>
	<path fill="#FFFFFF" d="M346.727,149.891c-14.677,0-20.849-10.287-20.849-20.438V52.232h17.831v76.125
		c0,4.252,1.783,6.446,6.31,6.446h6.857v15.088H346.727z"/>
	<path fill="#FFFFFF" d="M381.704,119.715c0,9.19,5.624,15.911,15.637,15.911c7.818,0,11.658-2.194,16.185-6.721l10.836,10.562
		c-7.27,7.27-14.265,11.247-27.158,11.247c-16.87,0-33.056-7.682-33.056-36.622c0-23.318,12.619-36.485,31.136-36.485
		c19.889,0,31.136,14.539,31.136,34.153v7.955H381.704z M407.217,99.827c-1.921-4.252-5.898-7.407-11.934-7.407
		s-10.013,3.155-11.933,7.407c-1.098,2.606-1.509,4.527-1.646,7.681h27.158C408.726,104.354,408.313,102.433,407.217,99.827z"/>
	<path fill="#FFFFFF" d="M481.286,149.891l-13.168-21.397l-13.03,21.397H433.69l24.689-36.485L434.651,78.43h21.396l12.07,20.437
		l12.208-20.437h21.396l-23.729,34.976l24.688,36.485H481.286z"/>
	<path fill="#FFFFFF" d="M550.966,149.891v-6.172c-4.801,4.8-9.327,6.857-17.557,6.857c-8.093,0-13.99-2.058-18.242-6.31
		c-3.841-3.978-5.898-9.738-5.898-16.048c0-11.384,7.818-20.711,24.415-20.711h16.871v-3.566c0-7.818-3.841-11.247-13.305-11.247
		c-6.858,0-10.013,1.646-13.717,5.898l-11.384-11.11c6.995-7.681,13.854-9.876,25.786-9.876c20.025,0,30.45,8.504,30.45,25.238
		v47.046H550.966z M550.555,119.715h-14.128c-6.446,0-10.013,3.018-10.013,8.093c0,4.938,3.292,8.229,10.287,8.229
		c4.938,0,8.093-0.411,11.247-3.429c1.92-1.783,2.606-4.663,2.606-9.053V119.715z"/>
</g>
</svg>
